<svg width="132.000000" height="132.000000" viewBox="0 0 132 132" fill="none" xmlns="http://www.w3.org/2000/svg" xmlns:xlink="http://www.w3.org/1999/xlink">
	<desc>
			Created with Pixso.
	</desc>
	<defs/>
	<path d="M117.36 48.4629L119.4 25.2686L97.74 20.1143L86.4 0L66 9.17712L45.6 0L34.26 20.0515L12.6 25.1428L14.64 48.3999L0 66L14.64 83.5371L12.6 106.794L34.26 111.948L45.6 132L66 122.76L86.4 131.937L97.74 111.886L119.4 106.731L117.36 83.5371L132 66L117.36 48.4629ZM126.789 66L113.231 49.7581L113.375 48.1123L115.113 28.3601L95.1139 23.6011L84.7096 5.14661L66 13.5632L47.2859 5.14453L36.8798 23.5447L16.8874 28.2441L18.7686 49.6914L5.20676 65.9954L18.769 82.2415L16.8865 103.703L36.883 108.461L47.2813 126.847L65.9944 118.371L84.7141 126.793L95.117 108.398L115.113 103.64L113.231 82.2419L126.789 66Z" fill="#F8F200" fill-opacity="1.000000" fill-rule="evenodd"/>
	<path d="M54.2337 90.0133L48.4 84.1797C46.0666 81.8462 43.7331 81.8462 41.3997 84.1797L35.9903 89.589L38.3238 91.9225L43.7331 86.5131C44.5109 85.7353 45.2817 85.7282 46.0454 86.4919L46.0666 86.5131L41.9936 90.5861C40.042 92.5377 40.0208 94.4681 41.93 96.3773C43.9099 98.3572 45.8757 98.3713 47.8273 96.4197L54.2337 90.0133ZM44.3059 94.0862C43.924 93.7044 43.9311 93.3155 44.3271 92.9195L48.4 88.8466L49.5668 90.0133L45.4938 94.0862C45.0978 94.4822 44.7019 94.4822 44.3059 94.0862ZM66.007 78.24L62.6765 81.5704L55.5065 81.7402L54.3397 82.9069L57.8399 86.4071L55.5065 88.7405L46.1726 79.4067L48.5061 77.0733L52.0063 80.5734L53.173 79.4067L53.3639 72.2154L56.6732 68.9062L56.5671 78.346L66.007 78.24ZM64.3182 61.2611L71.3186 68.2615L67.8184 71.7617C67.0406 72.5395 66.2628 72.5395 65.4849 71.7617L59.6513 65.928L57.3179 68.2615L63.1515 74.0951C65.4849 76.4286 67.8184 76.4286 70.1518 74.0951L74.8188 69.4282L77.1522 71.7617L79.5917 69.3222L74.9248 64.6552L73.652 65.928L66.6517 58.9277L64.3182 61.2611ZM87.2343 57.0127L84.9008 59.3461L83.9038 58.3491C83.5078 60.3573 82.7441 61.9271 81.6128 63.0584C79.2793 65.3919 76.9459 65.3919 74.6124 63.0585L68.5667 57.0127L70.9001 54.6792L76.9459 60.725C77.7095 61.4887 78.4874 61.4887 79.2793 60.725C80.637 58.9714 81.0612 57.0622 80.5521 54.9974L75.567 50.0123L77.9005 47.6789L87.2343 57.0127ZM82.1431 49.3759C80.1632 47.396 80.1491 45.4303 82.1007 43.4787L88.5071 37.0723L97.8409 46.4061L95.5074 48.7395L92.0072 45.2394L90.9678 46.2788L91.5406 52.7064L88.5071 55.7399L87.9343 49.3123C85.9827 51.2639 84.0523 51.2851 82.1431 49.3759ZM88.5071 41.7392L84.4341 45.8121C84.0382 46.2081 84.0523 46.6182 84.4766 47.0425C84.8301 47.396 85.2049 47.3748 85.6009 46.9788L89.6738 42.9059L88.5071 41.7392Z" fill="#F8F200" fill-opacity="1.000000" fill-rule="evenodd"/>
</svg>
